HIERARCHY
ROOT Hips
{
	OFFSET 0.000000 71.427986 0.000000
	CHANNELS 6 Xposition Yposition Zposition Xrotation Yrotation Zrotation
	JOINT Pelvis
	{
		OFFSET 0.000000 0.000000 0.000000
		CHANNELS 3 Xrotation Yrotation Zrotation
		JOINT LeftUpLeg
		{
			OFFSET 6.797100 -2.508499 -1.318700
			CHANNELS 3 Xrotation Yrotation Zrotation
			JOINT LeftLeg
			{
				OFFSET 0.069008 -29.241863 0.690200
				CHANNELS 3 Xrotation Yrotation Zrotation
				JOINT LeftFoot
				{
					OFFSET -0.069008 -29.568123 -0.266800
					CHANNELS 3 Xrotation Yrotation Zrotation
					JOINT LeftToeBase
					{
						OFFSET 3.145500 -8.631000 16.059900
						CHANNELS 3 Xrotation Yrotation Zrotation
						End Site
						{
							OFFSET 0.000000 18.501587 0.000000
						}
					}
				}
			}
			JOINT Left_ShortSleeve
			{
				OFFSET 0.265923 -10.480953 1.153800
				CHANNELS 3 Xrotation Yrotation Zrotation
				End Site
				{
					OFFSET 1.725763 19.823879 0.000000
				}
			}
		}
		JOINT RightUpLeg
		{
			OFFSET -6.797100 -2.508499 -1.318700
			CHANNELS 3 Xrotation Yrotation Zrotation
			JOINT RightLeg
			{
				OFFSET -0.082453 -29.241932 0.688000
				CHANNELS 3 Xrotation Yrotation Zrotation
				JOINT RightFoot
				{
					OFFSET 0.082453 -29.568058 -0.264600
					CHANNELS 3 Xrotation Yrotation Zrotation
					JOINT RightToeBase
					{
						OFFSET -3.115300 -8.682800 16.113400
						CHANNELS 3 Xrotation Yrotation Zrotation
						End Site
						{
							OFFSET 0.000000 18.567114 0.000000
						}
					}
				}
			}
			JOINT Right_ShortSleeve
			{
				OFFSET -0.265923 -10.480953 1.153800
				CHANNELS 3 Xrotation Yrotation Zrotation
				End Site
				{
					OFFSET -1.725766 19.823910 0.000000
				}
			}
		}
	}
	JOINT Spine
	{
		OFFSET 0.000000 13.368103 0.470500
		CHANNELS 3 Xrotation Yrotation Zrotation
		JOINT Spine1
		{
			OFFSET 0.147000 13.837402 0.538800
			CHANNELS 3 Xrotation Yrotation Zrotation
			JOINT Spine2
			{
				OFFSET 0.168000 16.242897 -1.435500
				CHANNELS 3 Xrotation Yrotation Zrotation
				JOINT Neck
				{
					OFFSET 0.217200 18.631500 -1.679100
					CHANNELS 3 Xrotation Yrotation Zrotation
					JOINT Head
					{
						OFFSET 0.000000 6.599396 1.385900
						CHANNELS 3 Xrotation Yrotation Zrotation
						JOINT Hat
						{
							OFFSET -0.532200 27.220596 -10.096100
							CHANNELS 3 Xrotation Yrotation Zrotation
							End Site
							{
								OFFSET 0.000000 22.029861 0.000000
							}
						}
						JOINT HairD
						{
							OFFSET -10.777400 17.437393 -1.325900
							CHANNELS 3 Xrotation Yrotation Zrotation
							JOINT HairD1
							{
								OFFSET -3.290299 -11.051193 1.062200
								CHANNELS 3 Xrotation Yrotation Zrotation
								End Site
								{
									OFFSET 0.000000 11.579437 0.000000
								}
							}
						}
						JOINT HairB
						{
							OFFSET -10.777400 17.437393 1.467900
							CHANNELS 3 Xrotation Yrotation Zrotation
							JOINT HairB1
							{
								OFFSET -1.561200 -12.956299 3.590200
								CHANNELS 3 Xrotation Yrotation Zrotation
								End Site
								{
									OFFSET 0.000000 13.534866 0.000000
								}
							}
						}
						JOINT HairA
						{
							OFFSET 9.713100 17.437393 1.467900
							CHANNELS 3 Xrotation Yrotation Zrotation
							JOINT HairA1
							{
								OFFSET 1.561200 -12.956299 3.590200
								CHANNELS 3 Xrotation Yrotation Zrotation
								End Site
								{
									OFFSET 0.000000 13.534866 0.000000
								}
							}
						}
						JOINT HairC
						{
							OFFSET 9.713100 17.437393 -1.325900
							CHANNELS 3 Xrotation Yrotation Zrotation
							JOINT HairC1
							{
								OFFSET 3.290300 -11.051193 1.062200
								CHANNELS 3 Xrotation Yrotation Zrotation
								End Site
								{
									OFFSET 0.000000 11.579437 0.000000
								}
							}
						}
					}
				}
				JOINT LeftShoulder
				{
					OFFSET 5.101800 15.108002 -2.763700
					CHANNELS 3 Xrotation Yrotation Zrotation
					JOINT LeftArm
					{
						OFFSET 9.825497 2.506317 -1.597400
						CHANNELS 3 Xrotation Yrotation Zrotation
						JOINT LeftForeArm
						{
							OFFSET 21.966244 0.000000 0.000000
							CHANNELS 3 Xrotation Yrotation Zrotation
							JOINT LeftHand
							{
								OFFSET 33.879036 0.000000 0.000000
								CHANNELS 3 Xrotation Yrotation Zrotation
								JOINT LeftHandThumb1
								{
									OFFSET 6.715286 -2.359680 3.363841
									CHANNELS 3 Xrotation Yrotation Zrotation
									JOINT LeftHandThumb2
									{
										OFFSET 2.507072 -1.447464 1.447461
										CHANNELS 3 Xrotation Yrotation Zrotation
										JOINT LeftHandThumb3
										{
											OFFSET 2.898338 -1.673355 1.673357
											CHANNELS 3 Xrotation Yrotation Zrotation
											End Site
											{
												OFFSET -0.295959 3.727692 -0.131651
											}
										}
									}
								}
								JOINT LeftHandIndex1
								{
									OFFSET 14.190811 -0.254547 3.840278
									CHANNELS 3 Xrotation Yrotation Zrotation
									JOINT LeftHandIndex2
									{
										OFFSET 3.551727 0.000000 -0.000000
										CHANNELS 3 Xrotation Yrotation Zrotation
										JOINT LeftHandIndex3
										{
											OFFSET 2.894196 0.000000 0.000000
											CHANNELS 3 Xrotation Yrotation Zrotation
											End Site
											{
												OFFSET -1.000603 2.690872 0.366626
											}
										}
									}
								}
								JOINT LeftHandMiddle1
								{
									OFFSET 13.776489 0.000000 0.000000
									CHANNELS 3 Xrotation Yrotation Zrotation
									JOINT LeftHandMiddle2
									{
										OFFSET 3.438232 0.000000 0.000000
										CHANNELS 3 Xrotation Yrotation Zrotation
										JOINT LeftHandMiddle3
										{
											OFFSET 3.691551 0.000000 0.000000
											CHANNELS 3 Xrotation Yrotation Zrotation
											End Site
											{
												OFFSET -1.082298 3.499527 0.457670
											}
										}
									}
								}
								JOINT LeftHandRing1
								{
									OFFSET 13.966164 -0.268127 -3.067488
									CHANNELS 3 Xrotation Yrotation Zrotation
									JOINT LeftHandRing2
									{
										OFFSET 3.162567 0.000000 0.000000
										CHANNELS 3 Xrotation Yrotation Zrotation
										JOINT LeftHandRing3
										{
											OFFSET 3.324348 0.000000 0.000000
											CHANNELS 3 Xrotation Yrotation Zrotation
											End Site
											{
												OFFSET -0.861900 3.184998 0.405154
											}
										}
									}
								}
								JOINT LeftHandPinky1
								{
									OFFSET 13.131393 -0.168503 -5.746925
									CHANNELS 3 Xrotation Yrotation Zrotation
									JOINT LeftHandPinky2
									{
										OFFSET 2.849182 0.000000 0.000000
										CHANNELS 3 Xrotation Yrotation Zrotation
										JOINT LeftHandPinky3
										{
											OFFSET 2.805038 0.000000 0.000000
											CHANNELS 3 Xrotation Yrotation Zrotation
											End Site
											{
												OFFSET -0.882500 2.642609 0.325652
											}
										}
									}
								}
							}
							JOINT Left_Sleeve
							{
								OFFSET 6.592125 -0.646545 0.805568
								CHANNELS 3 Xrotation Yrotation Zrotation
								End Site
								{
									OFFSET -0.000179 20.275787 -0.000000
								}
							}
						}
					}
				}
				JOINT RightShoulder
				{
					OFFSET -5.731700 15.108002 -2.763700
					CHANNELS 3 Xrotation Yrotation Zrotation
					JOINT RightArm
					{
						OFFSET -9.825497 2.506317 -1.597400
						CHANNELS 3 Xrotation Yrotation Zrotation
						JOINT RightForeArm
						{
							OFFSET -21.966242 0.000000 0.000000
							CHANNELS 3 Xrotation Yrotation Zrotation
							JOINT RightHand
							{
								OFFSET -33.879032 0.000000 0.000000
								CHANNELS 3 Xrotation Yrotation Zrotation
								JOINT RightHandThumb1
								{
									OFFSET -6.715286 -2.359680 3.363841
									CHANNELS 3 Xrotation Yrotation Zrotation
									JOINT RightHandThumb2
									{
										OFFSET -2.507072 -1.447464 1.447461
										CHANNELS 3 Xrotation Yrotation Zrotation
										JOINT RightHandThumb3
										{
											OFFSET -2.898338 -1.673355 1.673357
											CHANNELS 3 Xrotation Yrotation Zrotation
											End Site
											{
												OFFSET 0.295959 3.727692 -0.131651
											}
										}
									}
								}
								JOINT RightHandIndex1
								{
									OFFSET -14.190811 -0.254547 3.840278
									CHANNELS 3 Xrotation Yrotation Zrotation
									JOINT RightHandIndex2
									{
										OFFSET -3.551727 0.000000 -0.000000
										CHANNELS 3 Xrotation Yrotation Zrotation
										JOINT RightHandIndex3
										{
											OFFSET -2.894196 0.000000 0.000000
											CHANNELS 3 Xrotation Yrotation Zrotation
											End Site
											{
												OFFSET 1.000603 2.690872 0.366626
											}
										}
									}
								}
								JOINT RightHandMiddle1
								{
									OFFSET -13.776489 0.000000 0.000000
									CHANNELS 3 Xrotation Yrotation Zrotation
									JOINT RightHandMiddle2
									{
										OFFSET -3.438232 0.000000 0.000000
										CHANNELS 3 Xrotation Yrotation Zrotation
										JOINT RightHandMiddle3
										{
											OFFSET -3.691551 0.000000 0.000000
											CHANNELS 3 Xrotation Yrotation Zrotation
											End Site
											{
												OFFSET 1.082298 3.499527 0.457670
											}
										}
									}
								}
								JOINT RightHandRing1
								{
									OFFSET -13.966164 -0.268127 -3.067488
									CHANNELS 3 Xrotation Yrotation Zrotation
									JOINT RightHandRing2
									{
										OFFSET -3.162567 0.000000 0.000000
										CHANNELS 3 Xrotation Yrotation Zrotation
										JOINT RightHandRing3
										{
											OFFSET -3.324348 0.000000 0.000000
											CHANNELS 3 Xrotation Yrotation Zrotation
											End Site
											{
												OFFSET 0.861900 3.184998 0.405154
											}
										}
									}
								}
								JOINT RightHandPinky1
								{
									OFFSET -13.131393 -0.168503 -5.746925
									CHANNELS 3 Xrotation Yrotation Zrotation
									JOINT RightHandPinky2
									{
										OFFSET -2.849182 0.000000 0.000000
										CHANNELS 3 Xrotation Yrotation Zrotation
										JOINT RightHandPinky3
										{
											OFFSET -2.805038 0.000000 0.000000
											CHANNELS 3 Xrotation Yrotation Zrotation
											End Site
											{
												OFFSET 0.882500 2.642609 0.325652
											}
										}
									}
								}
							}
							JOINT Right_Sleeve
							{
								OFFSET -6.592125 -0.646545 0.805568
								CHANNELS 3 Xrotation Yrotation Zrotation
								End Site
								{
									OFFSET 0.000179 20.275787 -0.000000
								}
							}
						}
					}
				}
				JOINT Bind_Right_JacketString
				{
					OFFSET -3.534800 11.969597 7.200700
					CHANNELS 3 Xrotation Yrotation Zrotation
					JOINT Bind_Right_JacketString1
					{
						OFFSET -0.319900 -6.102600 2.794100
						CHANNELS 3 Xrotation Yrotation Zrotation
						End Site
						{
							OFFSET 0.000000 6.719452 0.000000
						}
					}
				}
				JOINT Bind_Left_JacketString
				{
					OFFSET 2.904800 11.969597 7.200700
					CHANNELS 3 Xrotation Yrotation Zrotation
					JOINT Bind_Left_JacketString1
					{
						OFFSET 0.364800 -5.904503 3.186800
						CHANNELS 3 Xrotation Yrotation Zrotation
						End Site
						{
							OFFSET 0.000000 6.719513 0.000000
						}
					}
				}
				JOINT HairE
				{
					OFFSET 5.915200 17.612701 -11.592200
					CHANNELS 3 Xrotation Yrotation Zrotation
					JOINT HairE1
					{
						OFFSET 0.289200 -7.171898 -1.284500
						CHANNELS 3 Xrotation Yrotation Zrotation
						End Site
						{
							OFFSET 0.000000 7.291756 0.000000
						}
					}
				}
				JOINT HairF
				{
					OFFSET -0.864800 17.612701 -11.592200
					CHANNELS 3 Xrotation Yrotation Zrotation
					JOINT HairF1
					{
						OFFSET 0.000000 -14.087097 -2.127501
						CHANNELS 3 Xrotation Yrotation Zrotation
						End Site
						{
							OFFSET 0.000000 14.246841 0.000000
						}
					}
				}
				JOINT HairG
				{
					OFFSET -8.087700 17.612701 -11.592200
					CHANNELS 3 Xrotation Yrotation Zrotation
					JOINT HairG1
					{
						OFFSET -0.293600 -6.081398 -0.910100
						CHANNELS 3 Xrotation Yrotation Zrotation
						End Site
						{
							OFFSET 0.000000 6.156120 0.000000
						}
					}
				}
			}
		}
	}
	JOINT Pouch
	{
		OFFSET 0.000000 4.394501 10.847300
		CHANNELS 3 Xrotation Yrotation Zrotation
		End Site
		{
			OFFSET 0.000000 21.880577 0.000000
		}
	}
	JOINT Bag
	{
		OFFSET -13.229000 4.813004 -0.593300
		CHANNELS 3 Xrotation Yrotation Zrotation
		End Site
		{
			OFFSET 0.000000 21.880577 0.000000
		}
	}
	JOINT OccupyGuyFacialAnim_Joint
	{
		OFFSET 1.000000 -70.206398 -1.655000
		CHANNELS 3 Xrotation Yrotation Zrotation
		End Site
		{
			OFFSET 0.000000 21.880577 0.000000
		}
	}
}
MOTION
Frames: 4
Frame Time: 0.033333
1.269859 65.181488 -89.227188 1.737331 -21.884206 0.578578 -0.000000 -0.000000 0.000000 -43.954579 5.405781 14.677626 38.936863 16.907163 -5.925179 -12.276864 0.383145 -1.720969 0.000001 0.000000 0.000000 0.000001 0.000000 -0.000000 -17.994267 17.631242 2.395412 56.217040 -4.137694 5.459494 -31.572963 -5.789257 2.068286 0.000001 -0.000002 0.000000 0.000001 -0.000000 -0.000001 3.400939 0.034606 1.470058 7.317711 0.161639 -0.115472 7.283820 0.024650 -0.242461 15.894702 10.413941 -13.818210 -25.208893 7.611926 3.313840 -0.000000 0.000000 -0.000000 -0.000000 0.000000 -0.000000 -0.000000 0.000000 -0.000000 -0.000000 0.000000 -0.000000 -0.000001 -0.000000 0.000000 -0.000000 0.000000 -0.000000 -0.000001 -0.000000 0.000000 -0.000000 0.000000 -0.000000 -0.000000 0.000000 -0.000000 -0.307773 -6.675206 -0.027750 -76.774523 -5.832719 -37.099853 42.415922 -70.527393 38.116755 -53.240020 18.100392 21.018106 17.547869 -5.710100 -12.931391 10.857849 26.147334 8.645557 -0.000000 -0.000001 -0.000000 13.915067 0.958451 -54.831092 0.369385 1.177586 -65.340130 0.000003 0.000000 -0.000002 7.434465 1.267971 -63.309181 1.792802 1.499480 -64.077713 -0.000001 0.000001 -0.000001 8.527903 2.333291 -74.119956 -0.232572 1.006484 -56.884851 -0.000002 0.000001 0.000002 9.625810 13.544695 -84.452721 0.879371 0.083284 -63.465606 -0.000000 -0.000001 0.000004 0.000000 -0.000002 0.000002 -0.246064 14.040276 20.926045 4.005798 -3.098939 50.046674 13.803499 26.150525 -5.483703 -17.731354 11.014632 0.298921 15.788109 -2.734152 -17.206206 -2.198287 -31.113561 7.361087 0.000000 0.000001 0.000002 2.370552 -3.661373 13.468161 -2.152966 -2.475732 23.650555 -0.000000 0.000000 -0.000001 -1.975594 -5.710056 18.642161 0.276225 -5.102756 31.967129 0.000001 -0.000000 -0.000003 -3.262545 -8.564356 16.748302 4.036070 -4.065067 38.242106 0.000001 0.000000 0.000006 -6.473451 -11.349778 28.239723 10.724469 -2.565880 39.803303 -0.000000 0.000000 0.000002 0.000001 -0.000000 0.000001 -0.000000 0.000002 -0.000001 -0.000000 0.000000 -0.000000 -0.000000 0.000002 -0.000000 -0.000000 0.000002 -0.000000 -0.000000 0.000002 -0.000001 -0.000000 0.000000 -0.000000 -0.000000 0.000002 -0.000000 -0.000000 0.000002 -0.000000 -0.000000 0.000002 -0.000001 -0.000000 0.000000 -0.000000 -0.000000 -0.000000 0.000000 -0.000000 -0.000000 0.000000 -0.000000 -0.000000 0.000000 
0.870049 65.720940 -92.394043 1.866886 -20.381235 0.813648 0.000000 -0.000001 -0.000000 -42.473378 5.929879 14.328139 42.706758 16.152556 -6.711159 -9.265216 0.306743 -5.603456 -0.000001 0.000001 -0.000000 -0.000003 0.000000 -0.000000 -18.896948 14.952440 2.616966 52.570702 -3.938056 5.246643 -30.337764 -5.210141 0.236893 -0.000000 0.000001 0.000000 -0.000001 -0.000000 -0.000000 3.475753 -0.142658 1.055765 7.300000 -0.168805 0.126167 7.272077 -0.271414 0.027228 15.730443 10.208089 -13.590551 -25.155139 7.410208 3.490876 -0.000001 0.000000 -0.000000 -0.000001 0.000000 -0.000000 -0.000001 0.000000 0.000000 -0.000001 0.000000 -0.000000 -0.000001 0.000000 -0.000000 -0.000001 0.000000 -0.000000 -0.000001 0.000000 -0.000000 -0.000001 0.000000 -0.000000 -0.000001 0.000000 -0.000000 -0.312354 -7.185408 -0.032386 -76.755781 -6.268894 -37.226338 40.797362 -71.102290 36.631148 -53.436265 18.314720 21.612814 17.550791 -5.701486 -12.932241 10.849584 26.124919 8.644489 -0.000002 0.000001 0.000001 13.826386 0.654236 -54.587442 0.366525 1.170782 -65.191813 0.000003 0.000000 -0.000002 7.519394 1.252752 -63.073478 1.788921 1.501604 -63.935386 0.000000 -0.000001 0.000001 8.520259 2.381935 -73.794532 -0.235636 1.001820 -56.653544 0.000001 0.000000 -0.000001 9.433746 13.499551 -84.307614 0.874900 0.085752 -63.011746 0.000000 -0.000001 -0.000001 0.000002 0.000002 0.000001 -0.215624 13.761853 20.929580 4.597768 -3.535632 49.699107 14.151571 25.184446 -5.607457 -19.937312 9.985256 1.315394 15.788109 -2.734149 -17.206210 -2.198290 -31.113561 7.361086 0.000000 0.000000 -0.000001 2.371961 -3.660761 12.450743 -2.154126 -2.475353 22.633010 -0.000000 0.000000 0.000000 -1.975738 -5.709608 17.624624 0.275986 -5.102497 30.949619 0.000001 0.000000 -0.000003 -3.262723 -8.563910 15.730754 4.037130 -4.064674 37.224688 0.000001 0.000000 -0.000003 -6.473678 -11.349371 27.222156 10.724171 -2.565515 38.785745 0.000000 0.000000 -0.000005 -0.000000 0.000000 0.000001 0.000002 -0.000001 -0.000000 0.000002 -0.000001 -0.000001 0.000002 -0.000001 -0.000000 0.000002 -0.000001 -0.000000 0.000002 -0.000001 -0.000000 0.000002 -0.000001 -0.000000 0.000002 -0.000001 -0.000000 0.000002 -0.000001 -0.000000 0.000002 -0.000001 -0.000000 0.000002 -0.000001 -0.000000 0.000000 -0.000001 -0.000000 0.000000 -0.000001 -0.000000 0.000000 -0.000001 -0.000000 
0.517229 66.239532 -95.401352 1.973406 -18.894979 1.154830 -0.000000 -0.000002 -0.000000 -42.851637 5.457235 13.401080 51.860595 14.533046 -7.448870 -9.776330 -0.857245 -4.846929 -0.000000 0.000000 0.000000 0.000000 0.000000 0.000001 -19.288439 11.850254 2.260054 48.450107 -3.310563 5.036590 -28.680651 -4.394611 -1.534233 -0.000000 -0.000000 0.000000 0.000002 -0.000000 -0.000000 3.485218 -0.309568 0.589836 7.287990 -0.487330 0.345483 7.266252 -0.558155 0.274074 15.422897 9.960502 -13.314578 -25.121569 7.174838 3.609546 -0.000000 0.000000 -0.000000 -0.000000 0.000000 -0.000000 -0.000000 0.000000 -0.000000 -0.000000 0.000000 -0.000000 -0.000001 0.000000 -0.000000 -0.000000 0.000000 -0.000000 -0.000001 0.000000 -0.000000 -0.000000 0.000000 -0.000000 -0.000000 0.000000 -0.000000 -0.286295 -7.665738 -0.038880 -76.726930 -6.508680 -37.410346 40.424744 -71.386590 36.303009 -53.519074 18.433395 21.873249 17.543022 -5.724444 -12.929980 10.894755 26.247410 8.650186 -0.000001 0.000001 -0.000001 13.748046 0.767278 -54.290708 0.361334 1.163531 -64.853172 -0.000001 0.000000 -0.000002 7.289745 1.418650 -62.632753 1.772416 1.506415 -63.338175 0.000002 0.000001 0.000001 8.475612 2.536745 -72.754075 -0.254809 0.996614 -55.553733 0.000000 0.000002 0.000000 8.900922 13.371618 -83.901006 0.872165 0.109681 -61.394856 -0.000000 -0.000001 0.000003 0.000003 -0.000003 0.000002 -0.168717 13.323741 20.831061 5.306086 -4.231001 49.447622 14.501077 24.321844 -5.789333 -22.101676 8.877800 2.310665 15.788110 -2.734153 -17.206208 -2.198293 -31.113561 7.361082 -0.000001 -0.000001 -0.000000 2.371808 -3.660294 11.391576 -2.154974 -2.474947 21.573783 0.000001 -0.000001 0.000000 -1.975895 -5.709153 16.565444 0.275744 -5.101923 29.890434 -0.000000 -0.000001 -0.000001 -3.262681 -8.563456 14.671613 4.038427 -4.064278 36.165657 -0.000000 -0.000002 0.000001 -6.473927 -11.348954 26.162973 10.723869 -2.565142 37.726591 -0.000000 0.000002 -0.000003 -0.000001 -0.000000 -0.000001 -0.000001 -0.000001 0.000000 0.000000 -0.000001 -0.000000 -0.000001 -0.000001 0.000001 -0.000001 -0.000001 0.000001 -0.000001 -0.000001 0.000000 0.000000 -0.000001 -0.000000 -0.000001 -0.000001 0.000001 -0.000001 -0.000001 0.000001 -0.000001 -0.000001 0.000000 0.000000 -0.000001 -0.000000 -0.000000 -0.000002 -0.000000 -0.000000 -0.000002 -0.000000 -0.000000 -0.000002 -0.000000 
0.204454 66.736145 -98.319939 2.122195 -17.584716 1.438088 0.000000 0.000002 -0.000000 -42.271631 4.547534 12.117984 60.356141 12.001995 -7.594566 -11.002003 -2.453869 -4.174490 0.000001 -0.000000 0.000000 0.000003 0.000000 -0.000000 -20.114239 8.489268 1.849045 45.216279 -2.449120 4.895819 -26.999827 -3.302685 -3.136119 0.000000 -0.000000 -0.000000 -0.000001 -0.000000 -0.000001 3.479306 -0.453135 0.242172 7.243738 -0.776888 0.535038 7.228541 -0.821773 0.488891 15.041933 9.686255 -13.088775 -25.218804 6.954332 3.617842 -0.000001 -0.000000 -0.000000 -0.000001 -0.000000 -0.000000 -0.000001 -0.000000 0.000000 -0.000001 -0.000000 0.000000 -0.000001 0.000000 0.000000 -0.000001 -0.000000 0.000000 -0.000001 0.000000 0.000000 -0.000001 -0.000000 -0.000000 -0.000001 -0.000000 -0.000000 -0.219772 -8.102509 -0.047110 -76.771893 -6.582402 -37.654403 41.545742 -71.215603 37.350446 -53.459734 18.439127 21.664528 17.559795 -5.674868 -12.934868 10.849650 26.125100 8.644510 -0.000001 0.000001 0.000003 13.684027 0.807180 -54.059947 0.357613 1.159581 -64.605974 -0.000001 0.000001 -0.000002 7.459209 1.308793 -62.853265 1.781597 1.495883 -63.684301 0.000001 0.000000 0.000001 8.533248 2.334798 -74.110066 -0.230474 1.003196 -56.956848 -0.000002 0.000001 0.000002 9.691522 13.559596 -84.500928 0.875921 0.075309 -63.718514 0.000001 -0.000002 0.000001 0.000003 0.000000 -0.000000 -0.050925 12.491883 20.410215 6.201297 -5.361327 49.515736 14.772197 23.657689 -6.054890 -24.195004 7.785007 3.371367 15.788110 -2.734151 -17.206211 -2.198285 -31.113561 7.361083 0.000001 -0.000001 0.000001 2.371703 -3.659815 10.343281 -2.155411 -2.474517 20.525434 0.000000 0.000000 0.000002 -1.976014 -5.708684 15.517138 0.275524 -5.101516 28.842089 0.000002 0.000000 0.000001 -3.262804 -8.562984 13.623272 4.040172 -4.063866 35.117476 -0.000000 -0.000001 -0.000002 -6.474151 -11.348522 25.114623 10.723574 -2.564765 36.678334 -0.000000 0.000000 0.000001 0.000000 -0.000000 -0.000001 0.000000 0.000000 -0.000000 0.000000 0.000000 -0.000000 0.000000 0.000000 -0.000000 0.000000 0.000000 -0.000000 0.000000 0.000000 -0.000000 0.000000 0.000000 -0.000000 0.000000 0.000000 -0.000000 0.000000 0.000000 -0.000000 0.000000 0.000000 -0.000000 0.000000 0.000000 -0.000000 0.000000 0.000002 -0.000000 0.000000 0.000002 -0.000000 0.000000 0.000002 -0.000000 
